<svg width="51" height="51" viewBox="0 0 51 51" fill="none" xmlns="http://www.w3.org/2000/svg">
<path fill-rule="evenodd" clip-rule="evenodd" d="M25.6697 4.87463C14.1804 4.87463 4.87463 14.1804 4.87463 25.6697C4.87463 34.8716 10.8272 42.6437 19.0933 45.3991C20.133 45.5811 20.523 44.9572 20.523 44.4113C20.523 43.9174 20.497 42.2798 20.497 40.5382C15.2722 41.5 13.9205 39.2645 13.5046 38.0948C13.2707 37.497 12.2569 35.6514 11.3731 35.1575C10.6453 34.7676 9.60552 33.8058 11.3471 33.7798C12.9847 33.7538 14.1545 35.2875 14.5444 35.9113C16.4159 39.0566 19.4052 38.1728 20.6009 37.6269C20.7829 36.2752 21.3288 35.3655 21.9266 34.8456C17.2997 34.3257 12.4648 32.5321 12.4648 24.578C12.4648 22.3165 13.2707 20.445 14.5963 18.9893C14.3884 18.4694 13.6606 16.3379 14.8043 13.4786C14.8043 13.4786 16.5459 12.9327 20.523 15.6101C22.1866 15.1422 23.9541 14.9083 25.7217 14.9083C27.4893 14.9083 29.2569 15.1422 30.9205 15.6101C34.8976 12.9067 36.6392 13.4786 36.6392 13.4786C37.7829 16.3379 37.0551 18.4694 36.8471 18.9893C38.1728 20.445 38.9786 22.2905 38.9786 24.578C38.9786 32.5581 34.1178 34.3257 29.4908 34.8456C30.2447 35.4954 30.8945 36.7431 30.8945 38.6927C30.8945 41.474 30.8685 43.7095 30.8685 44.4113C30.8685 44.9572 31.2584 45.607 32.2982 45.3991C36.4264 44.0055 40.0136 41.3523 42.5549 37.8131C45.0963 34.2739 46.4637 30.0268 46.4648 25.6697C46.4648 14.1804 37.159 4.87463 25.6697 4.87463Z" fill="#1c1c1c"/>
</svg>
