<svg width="51" height="51" viewBox="0 0 51 51" fill="none" xmlns="http://www.w3.org/2000/svg">
<path fill-rule="evenodd" clip-rule="evenodd" d="M25.6697 4.87463C20.0217 4.87463 19.3147 4.8982 17.0966 4.9994C14.8826 5.10061 13.3701 5.45274 12.0475 5.96707C10.6612 6.48833 9.40375 7.30627 8.36399 8.36544C7.30652 9.40399 6.48808 10.6605 5.96562 12.0476C5.45406 13.3701 5.10055 14.884 4.99934 17.098C4.89953 19.3148 4.87457 20.0204 4.87457 25.6697C4.87457 31.3191 4.89814 32.0247 4.99934 34.2429C5.10055 36.4569 5.45268 37.9694 5.96701 39.2919C6.48827 40.6783 7.30621 41.9357 8.36538 42.9754C9.40396 44.0329 10.6605 44.8513 12.0475 45.3738C13.3701 45.8867 14.8826 46.2389 17.0966 46.3401C19.3147 46.4413 20.0217 46.4648 25.6697 46.4648C31.3176 46.4648 32.0247 46.4413 34.2428 46.3401C36.4568 46.2389 37.9693 45.8867 39.2919 45.3724C40.6782 44.8511 41.9356 44.0332 42.9754 42.974C44.0328 41.9355 44.8513 40.679 45.3737 39.2919C45.8867 37.9694 46.2388 36.4569 46.34 34.2429C46.4412 32.0247 46.4648 31.3177 46.4648 25.6697C46.4648 20.0218 46.4412 19.3148 46.34 17.0966C46.2388 14.8826 45.8867 13.3701 45.3723 12.0476C44.8503 10.6599 44.0318 9.40287 42.974 8.36405C41.9354 7.30658 40.6789 6.48814 39.2919 5.96568C37.9693 5.45412 36.4554 5.10061 34.2414 4.9994C32.0247 4.89959 31.319 4.87463 25.6697 4.87463ZM25.6697 8.62191C31.222 8.62191 31.8805 8.64271 34.0737 8.74252C36.1005 8.83541 37.2013 9.17229 37.9346 9.45926C38.9051 9.83496 39.5982 10.2869 40.3261 11.0133C41.0539 11.7412 41.5045 12.4343 41.8802 13.4048C42.1657 14.1382 42.504 15.2389 42.5969 17.2657C42.6967 19.4589 42.7175 20.1174 42.7175 25.6697C42.7175 31.222 42.6967 31.8805 42.5969 34.0737C42.504 36.1006 42.1671 37.2013 41.8802 37.9347C41.5473 38.838 41.0163 39.6551 40.3261 40.3261C39.6552 41.0165 38.838 41.5476 37.9346 41.8802C37.2013 42.1658 36.1005 42.5041 34.0737 42.597C31.8805 42.6968 31.2234 42.7176 25.6697 42.7176C20.116 42.7176 19.4589 42.6968 17.2657 42.597C15.2389 42.5041 14.1381 42.1672 13.4047 41.8802C12.5015 41.5474 11.6843 41.0164 11.0133 40.3261C10.3231 39.6551 9.7921 38.8379 9.4592 37.9347C9.17361 37.2013 8.83535 36.1006 8.74246 34.0737C8.64265 31.8805 8.62185 31.222 8.62185 25.6697C8.62185 20.1174 8.64265 19.4589 8.74246 17.2657C8.83535 15.2389 9.17223 14.1382 9.4592 13.4048C9.8349 12.4343 10.2868 11.7412 11.0133 11.0133C11.6842 10.323 12.5014 9.79195 13.4047 9.45926C14.1381 9.17368 15.2389 8.83541 17.2657 8.74252C19.4589 8.64271 20.1174 8.62191 25.6697 8.62191Z" fill="black"/>
<path fill-rule="evenodd" clip-rule="evenodd" d="M25.6697 32.6084C24.7585 32.6084 23.8562 32.4289 23.0144 32.0802C22.1726 31.7315 21.4077 31.2204 20.7634 30.5761C20.119 29.9318 19.608 29.1669 19.2593 28.325C18.9106 27.4832 18.7311 26.5809 18.7311 25.6697C18.7311 24.7585 18.9106 23.8563 19.2593 23.0144C19.608 22.1726 20.119 21.4077 20.7634 20.7634C21.4077 20.1191 22.1726 19.608 23.0144 19.2593C23.8562 18.9106 24.7585 18.7311 25.6697 18.7311C27.51 18.7311 29.2748 19.4621 30.5761 20.7634C31.8773 22.0646 32.6083 23.8295 32.6083 25.6697C32.6083 27.51 31.8773 29.2749 30.5761 30.5761C29.2748 31.8773 27.51 32.6084 25.6697 32.6084ZM25.6697 14.9811C22.8349 14.9811 20.1162 16.1072 18.1117 18.1117C16.1072 20.1162 14.981 22.8349 14.981 25.6697C14.981 28.5046 16.1072 31.2233 18.1117 33.2278C20.1162 35.2323 22.8349 36.3584 25.6697 36.3584C28.5045 36.3584 31.2232 35.2323 33.2278 33.2278C35.2323 31.2233 36.3584 28.5046 36.3584 25.6697C36.3584 22.8349 35.2323 20.1162 33.2278 18.1117C31.2232 16.1072 28.5045 14.9811 25.6697 14.9811ZM39.468 14.787C39.468 15.4571 39.2018 16.0997 38.7279 16.5735C38.2541 17.0474 37.6115 17.3136 36.9414 17.3136C36.2713 17.3136 35.6286 17.0474 35.1548 16.5735C34.6809 16.0997 34.4147 15.4571 34.4147 14.787C34.4147 14.1169 34.6809 13.4742 35.1548 13.0004C35.6286 12.5266 36.2713 12.2604 36.9414 12.2604C37.6115 12.2604 38.2541 12.5266 38.7279 13.0004C39.2018 13.4742 39.468 14.1169 39.468 14.787Z" fill="black"/>
</svg>
