<svg width="51" height="51" viewBox="0 0 51 51" fill="none" xmlns="http://www.w3.org/2000/svg">
<path d="M46.4648 7.93274V43.4067C46.4648 44.2178 46.1427 44.9956 45.5692 45.5692C44.9956 46.1427 44.2178 46.4648 43.4067 46.4648H7.93274C7.12168 46.4648 6.34384 46.1427 5.77033 45.5692C5.19683 44.9956 4.87463 44.2178 4.87463 43.4067V7.93274C4.87463 7.12168 5.19683 6.34384 5.77033 5.77033C6.34384 5.19683 7.12168 4.87463 7.93274 4.87463H43.4067C44.2178 4.87463 44.9956 5.19683 45.5692 5.77033C46.1427 6.34384 46.4648 7.12168 46.4648 7.93274ZM17.107 20.7768H10.9908V40.3486H17.107V20.7768ZM17.6575 14.0489C17.6607 13.5863 17.5728 13.1276 17.3987 12.6989C17.2247 12.2702 16.9679 11.8801 16.643 11.5507C16.3181 11.2213 15.9316 10.9591 15.5054 10.7791C15.0792 10.599 14.6217 10.5047 14.159 10.5015H14.0489C13.1081 10.5015 12.2058 10.8753 11.5406 11.5406C10.8753 12.2058 10.5015 13.1081 10.5015 14.0489C10.5015 14.9898 10.8753 15.8921 11.5406 16.5573C12.2058 17.2226 13.1081 17.5963 14.0489 17.5963C14.5116 17.6077 14.972 17.5278 15.4038 17.3612C15.8356 17.1946 16.2303 16.9446 16.5654 16.6254C16.9005 16.3062 17.1695 15.924 17.3568 15.5009C17.5442 15.0777 17.6464 14.6217 17.6575 14.159V14.0489ZM40.3486 28.4587C40.3486 22.5749 36.6055 20.2875 32.8869 20.2875C31.6693 20.2265 30.457 20.4858 29.371 21.0396C28.2849 21.5934 27.363 22.4222 26.6973 23.4434H26.526V20.7768H20.7768V40.3486H26.893V29.9389C26.8046 28.8727 27.1404 27.8148 27.8275 26.9948C28.5146 26.1748 29.4975 25.6591 30.5627 25.5596H30.7951C32.7401 25.5596 34.1835 26.7829 34.1835 29.8655V40.3486H40.2997L40.3486 28.4587Z" fill="black"/>
</svg>
