<svg width="51" height="51" viewBox="0 0 51 51" fill="none" xmlns="http://www.w3.org/2000/svg">
<path d="M4.87463 46.4648L7.80991 35.7951C6.00635 32.6651 5.05922 29.1151 5.06385 25.5026C5.04296 14.1191 14.2874 4.87463 25.6488 4.87463C31.1631 4.87463 36.3407 7.01251 40.2392 10.9123C42.1608 12.8239 43.6839 15.0978 44.7203 17.6024C45.7567 20.1069 46.2858 22.7922 46.2769 25.5026C46.2769 36.8641 37.0324 46.1085 25.6697 46.1085C22.2111 46.1085 18.8359 45.2485 15.8171 43.5935L4.87463 46.4648ZM16.3 39.8829L16.929 40.2601C19.5695 41.8225 22.5808 42.6478 25.6488 42.6498C35.0825 42.6498 42.7764 34.9572 42.7764 25.5223C42.7764 20.9529 40.9948 16.6354 37.7659 13.4077C36.1781 11.8109 34.29 10.5441 32.2103 9.6804C30.1307 8.81667 27.9007 8.37304 25.6488 8.37509C16.1943 8.37632 8.50287 16.069 8.50287 25.5039C8.50287 28.7316 9.40471 31.8978 11.1236 34.623L11.5217 35.273L9.78191 41.603L16.3012 39.8841L16.3 39.8829Z" fill="black"/>
<path fill-rule="evenodd" clip-rule="evenodd" d="M20.513 16.8664C20.1358 16.0063 19.7169 15.9854 19.3606 15.9854C19.046 15.9645 18.7094 15.9645 18.3531 15.9645C18.0189 15.9645 17.4524 16.0899 16.9708 16.6145C16.4879 17.1379 15.1684 18.3752 15.1684 20.9111C15.1684 23.4483 17.0126 25.9007 17.2645 26.2362C17.5151 26.5716 20.8276 31.9371 26.0691 34.0136C30.4283 35.7325 31.3093 35.3971 32.2529 35.2914C33.1953 35.187 35.2926 34.0554 35.7325 32.839C36.1515 31.6447 36.1515 30.5967 36.0261 30.3866C35.9008 30.1777 35.5433 30.0511 35.0407 29.7784C34.5161 29.5277 32.001 28.2696 31.5194 28.1013C31.0365 27.9342 30.7011 27.8506 30.3657 28.3531C30.0303 28.8778 29.0449 30.0303 28.7316 30.3657C28.4367 30.7011 28.1234 30.7429 27.6196 30.491C27.0962 30.2404 25.44 29.6948 23.4692 27.9342C21.9383 26.5703 20.9111 24.8736 20.5966 24.371C20.3042 23.8464 20.5548 23.5736 20.8276 23.3218C21.0586 23.092 21.3522 22.7148 21.6041 22.4212C21.8547 22.1263 21.9383 21.8965 22.1275 21.5611C22.2946 21.2257 22.2111 20.9111 22.0857 20.6605C21.9592 20.4295 20.975 17.8923 20.513 16.8651V16.8664Z" fill="black"/>
</svg>
